HIERARCHY
ROOT Bip001_Pelvis
{
  OFFSET 34.4345 95.6767 -26.8758
  CHANNELS 6 Xposition Yposition Zposition Zrotation Xrotation Yrotation
  JOINT Bip001_Spine
  {
    OFFSET 1.4188e-005 10.2191 -0.0116013
    CHANNELS 3 Zrotation Xrotation Yrotation
    JOINT Bip001_L_Thigh
    {
      OFFSET 11.0458 -10.2192 0.0116197
      CHANNELS 3 Zrotation Xrotation Yrotation
      JOINT Bip001_L_Calf
      {
        OFFSET -0.707118 -44.0221 0.360014
        CHANNELS 3 Zrotation Xrotation Yrotation
        JOINT Bip001_L_Foot
        {
          OFFSET -0.651902 -40.5938 -3.56146
          CHANNELS 3 Zrotation Xrotation Yrotation
          JOINT Bip001_L_Toe0
          {
            OFFSET 0.0530839 -10.2181 13.1504
            CHANNELS 3 Zrotation Xrotation Yrotation
            End Site
            {
              OFFSET -1.02532e-005 0 7.55606
            }
          }
        }
      }
    }
    JOINT Bip001_R_Thigh
    {
      OFFSET -11.0458 -10.2191 0.0115893
      CHANNELS 3 Zrotation Xrotation Yrotation
      JOINT Bip001_R_Calf
      {
        OFFSET 0.706994 -44.0221 0.35984
        CHANNELS 3 Zrotation Xrotation Yrotation
        JOINT Bip001_R_Foot
        {
          OFFSET 0.651786 -40.5938 -3.5613
          CHANNELS 3 Zrotation Xrotation Yrotation
          JOINT Bip001_R_Toe0
          {
            OFFSET -0.0531479 -10.2181 13.1504
            CHANNELS 3 Zrotation Xrotation Yrotation
            End Site
            {
              OFFSET -1.02894e-005 0 7.55606
            }
          }
        }
      }
    }
    JOINT Bip001_Spine1
    {
      OFFSET 1.87041e-005 14.5736 1.08638
      CHANNELS 3 Zrotation Xrotation Yrotation
      JOINT Bip001_Spine2
      {
        OFFSET 2.24614e-005 14.5058 -1.69078
        CHANNELS 3 Zrotation Xrotation Yrotation
        JOINT Bip001_Neck
        {
          OFFSET 2.20278e-005 15.3945 -0.489414
          CHANNELS 3 Zrotation Xrotation Yrotation
          JOINT Bip001_L_Clavicle
          {
            OFFSET 6.06036 -0.000579998 0.00836775
            CHANNELS 3 Zrotation Xrotation Yrotation
            JOINT Bip001_L_UpperArm
            {
              OFFSET 11.5509 -0.0600302 0.00193952
              CHANNELS 3 Zrotation Xrotation Yrotation
              JOINT Bip001_L_Forearm
              {
                OFFSET 25.9523 0.0806089 -2.15551
                CHANNELS 3 Zrotation Xrotation Yrotation
                JOINT Bip001_L_Hand
                {
                  OFFSET 32.2475 0.153767 1.63968
                  CHANNELS 3 Zrotation Xrotation Yrotation
                  JOINT Bip001_L_Finger0
                  {
                    OFFSET 6.04639 -2.20976 5.90322
                    CHANNELS 3 Zrotation Xrotation Yrotation
                    End Site
                    {
                      OFFSET 4.22375 -1.43895 0.606485
                    }
                  }
                  JOINT Bip001_L_Finger1
                  {
                    OFFSET 11.0826 -0.704819 -0.198153
                    CHANNELS 3 Zrotation Xrotation Yrotation
                    End Site
                    {
                      OFFSET 6.20027 -0.397518 -0.0787166
                    }
                  }
                }
              }
            }
          }
          JOINT Bip001_R_Clavicle
          {
            OFFSET -6.06037 -0.000563197 0.00835105
            CHANNELS 3 Zrotation Xrotation Yrotation
            JOINT Bip001_R_UpperArm
            {
              OFFSET -11.5509 -0.0599978 0.00190698
              CHANNELS 3 Zrotation Xrotation Yrotation
              JOINT Bip001_R_Forearm
              {
                OFFSET -25.9523 0.0806822 -2.15589
                CHANNELS 3 Zrotation Xrotation Yrotation
                JOINT Bip001_R_Hand
                {
                  OFFSET -32.2475 0.153859 1.63989
                  CHANNELS 3 Zrotation Xrotation Yrotation
                  JOINT Bip001_R_Finger0
                  {
                    OFFSET -6.04641 -2.20976 5.90317
                    CHANNELS 3 Zrotation Xrotation Yrotation
                    End Site
                    {
                      OFFSET -4.22376 -1.43895 0.60647
                    }
                  }
                  JOINT Bip001_R_Finger1
                  {
                    OFFSET -11.0826 -0.704794 -0.198182
                    CHANNELS 3 Zrotation Xrotation Yrotation
                    End Site
                    {
                      OFFSET -6.20028 -0.397504 -0.0787333
                    }
                  }
                }
              }
            }
          }
          JOINT Bip001_Head
          {
            OFFSET 1.09673e-005 11.2744 2.05948
            CHANNELS 3 Zrotation Xrotation Yrotation
            End Site
            {
              OFFSET 2.89576e-005 20.8808 -2.77728e-005
            }
          }
        }
      }
    }
  }
}
MOTION
Frames:	8
Frame Time:	0.04
36.7948 89.0393 -32.0993 -7.2724 -7.94059 8.73743 0.0811646 4.04186 0.696655 15.9665 -20.5524 6.84056 -3.02465 49.1266 -8.72084 9.11343 -22.3573 1.379 1.71002 -4.70878 -1.06139 -1.91584 -10.5721 -0.193034 10.1688 36.3714 -5.07032 -15.0603 -14.3679 -13.28 5.01131 -15.2973 4.99544 0.113336 8.08443 1.39277 0.113331 8.08443 1.39277 1.86998 -5.53849 0.0310959 -23.3028 9.71334 -10.9417 -37.9801 28.8647 -6.26107 7.35184 -11.5681 -15.9424 11.4036 0.537684 0.118625 -1.59028e-015 3.18055e-015 3.18055e-015 7.95139e-016 9.54167e-015 3.18055e-015 11.5554 11.7106 25.6985 44.934 -36.6168 45.5828 -48.1309 6.96175 69.6276 -36.8768 -12.7225 12.5929 2.64834e-031 -9.54166e-015 1.59028e-015 1.59028e-015 -9.54167e-015 -0 -4.63958 1.97878 1.60455 
36.6965 88.8879 -31.7357 -7.4257 -8.08135 11.8317 -0.0463296 3.98953 1.01934 16.7467 -21.6749 6.45591 -3.33261 49.8732 -10.7647 9.67128 -22.6566 1.49121 2.11746 -4.6656 -1.61686 -1.30457 -9.84576 -0.198773 11.4762 36.1029 -5.54078 -16.1401 -13.6512 -16.2057 5.12568 -15.5151 4.98887 -0.164629 7.97755 2.04939 -0.164627 7.97771 2.0494 2.61756 -5.78521 -2.49197 -24.5415 9.10183 -9.22752 -37.6601 27.4219 -6.11036 6.30124 -12.1345 -17.2889 9.96661 -0.403571 0.00186401 -1.59028e-015 1.59028e-015 -9.54166e-015 -3.18055e-015 1.59028e-015 -6.36111e-015 9.38391 12.3479 29.1941 41.5886 -33.032 49.3614 -44.228 3.99522 60.8056 -37.3188 -12.4596 12.5397 -1.76556e-031 -3.18055e-015 -3.18055e-015 3.18055e-015 -3.18056e-015 -3.18055e-015 -4.83218 2.62719 -0.573222 
36.7014 88.9208 -31.1701 -6.98217 -8.53972 14.6762 -0.177455 4.01326 1.23728 16.6044 -21.7963 6.29872 -2.47744 49.7691 -13.7259 10.0961 -22.536 1.54321 2.41993 -4.77211 -2.03806 -0.94251 -8.38295 -0.778019 11.5772 35.4321 -5.96803 -16.6696 -13.2557 -17.7917 5.25177 -15.7455 4.97987 -0.439401 8.02192 2.49815 -0.441512 8.022 2.49702 3.25644 -5.95711 -4.95487 -25.425 8.21988 -7.0971 -37.9106 28.2537 -5.56158 6.00386 -11.4719 -18.4585 9.12857 -0.340206 -0.800838 -7.95139e-016 3.18055e-015 3.18055e-015 -7.95139e-016 1.59028e-015 3.18055e-015 7.74455 12.6844 31.88 49.597 -34.0717 57.8412 -47.1945 5.72407 59.5167 -46.2321 -8.95347 9.95981 7.95139e-016 -3.18055e-015 1.19271e-015 8.82782e-032 -6.36111e-015 7.95139e-016 -5.41273 2.5451 -2.71152 
36.8325 89.2818 -30.6764 -6.79423 -8.53539 17.31 -0.267927 3.83883 1.09716 16.2395 -21.7023 6.10014 -1.18621 48.8021 -16.6264 9.95986 -22.1547 1.47443 2.39587 -4.60567 -2.09499 -0.385111 -6.68766 -1.19457 11.1852 33.4526 -5.67038 -16.716 -12.2564 -19.222 5.28943 -15.7472 4.85246 -0.632512 7.67174 2.21897 -0.621349 7.67183 2.22024 5.61789 -5.06947 -6.93747 -26.8092 6.06636 -5.18785 -40.6538 31.8187 -2.81477 7.33233 -10.8743 -19.8812 9.17043 0.114137 -0.46274 1.59028e-015 -6.36111e-015 -0 -0 -3.18056e-015 -0 7.52691 12.4559 32.2872 79.7118 -43.5597 75.8302 -52.7523 8.39286 73.3962 -37.9004 -11.2822 9.13616 5.95877e-031 9.54166e-015 -3.57812e-015 7.95139e-016 6.36111e-015 -4.77083e-015 -8.01545 1.27213 -3.3566 
37.2465 89.8678 -30.2299 -6.30832 -9.25819 17.9524 -0.260333 3.55204 0.584704 15.489 -19.4432 5.82279 -0.501977 46.9798 -17.0999 8.91631 -22.0743 1.33167 2.31287 -4.17126 -2.15925 0.108472 -3.96968 -1.70953 8.87059 31.0797 -4.02776 -15.9831 -11.1833 -18.9252 5.34036 -15.7733 4.7336 -0.553195 7.10119 1.18885 -0.557075 7.1012 1.18881 8.14128 -3.36785 -8.11582 -26.8612 3.59008 -4.65836 -48.1346 34.1106 3.29835 9.01038 -8.61981 -20.2158 9.8198 0.564968 -0.469503 7.95139e-016 6.36111e-015 7.95139e-015 -5.29669e-031 3.18056e-015 9.54166e-015 7.76199 10.9527 30.2082 65.5401 -42.0702 69.7786 -41.2419 5.0509 66.2153 -31.3275 -8.65837 9.66225 1.59028e-015 0 -1.59028e-015 1.59028e-015 0 -1.59028e-015 -10.018 1.16627 -3.3682 
37.9286 90.8071 -29.8021 -5.00952 -10.1982 14.7875 -0.204031 3.32446 0.225136 13.6795 -14.3822 6.37538 -0.817781 42.9102 -14.6399 9.00239 -20.6572 1.2219 2.46139 -4.77001 -2.18848 -0.67558 -0.930743 -2.11355 5.11687 28.2222 -1.39262 -14.5123 -10.5467 -16.0923 5.25727 -15.6191 4.74146 -0.422252 6.64805 0.463352 -0.422258 6.64806 0.463361 7.14933 -3.51505 -7.63884 -27.2752 3.75616 -3.76829 -53.7718 35.7206 10.0216 10.7394 -5.08409 -20.144 7.38465 1.67066 -0.637765 7.95139e-015 -3.18055e-015 -1.59028e-015 5.56597e-015 -6.36111e-015 -1.59028e-015 5.30752 9.57327 29.0632 45.9612 -35.413 56.4763 -30.708 -1.80217 56.7319 -22.6128 -10.8141 10.2611 -1.59028e-015 -3.18055e-015 3.18055e-015 -0 -3.18056e-015 -0 -8.67276 2.47643 -3.39451 
38.406 91.9027 -29.5038 -4.41446 -10.2892 10.4968 -0.0917556 3.2127 0.0152323 11.8217 -9.92962 7.77044 -0.447087 37.6842 -12.7555 9.9626 -17.9425 1.10947 2.47826 -6.10222 -1.85794 -1.53896 1.08641 -2.56397 1.96333 24.1091 0.512609 -12.5109 -9.75694 -12.161 5.03081 -15.1789 4.73612 -0.188587 6.4254 0.0402025 -0.184844 6.42543 0.0378605 3.37886 -7.26331 -6.32996 -25.642 7.62458 -1.14138 -56.382 38.5906 12.6512 12.2145 -0.969794 -18.8239 2.29854 0.707099 -2.10626 -2.38542e-015 -6.36111e-015 -0 -0 -6.36111e-015 -0 5.44319 12.8629 30.0672 32.2983 -28.3334 45.5305 -23.6073 -10.5272 52.7381 -14.502 -13.6007 12.1337 4.77083e-015 3.18055e-015 -1.27222e-014 4.77083e-015 3.18056e-015 -1.59028e-014 -4.17039 5.10389 -4.12657 
38.7691 92.9792 -29.2951 -4.16286 -9.9929 6.25733 -0.00381199 2.97102 0.281406 9.95415 -6.09268 7.6898 -0.600268 32.1519 -9.48152 10.7647 -14.7346 0.831317 2.64312 -6.97113 -1.84394 -2.42402 2.98422 -4.15397 -0.316086 19.1037 1.56553 -10.1327 -8.75871 -7.29417 4.72582 -14.5401 4.6695 -0.00855038 5.94205 0.562645 -0.0258794 5.94201 0.563617 2.45327 -9.62744 -6.73468 -25.7709 9.70523 0.17012 -58.4135 42.8759 13.7752 12.361 0.657088 -16.4185 -2.53688 0.414595 -1.61551 -0 0 3.97569e-016 -7.95139e-016 3.18056e-015 -0 5.74709 15.2297 30.2669 25.4117 -22.6697 38.7261 -20.3605 -12.3652 52.9172 -12.8352 -14.1158 11.9999 -0 0 6.36111e-015 3.18055e-015 3.18056e-015 3.18055e-015 -2.44291 5.81275 -5.23615 
